<svg xmlns="http://www.w3.org/2000/svg" viewBox="0 0 512 512">
  <rect width="512" height="512" rx="96" fill="#080F1C"/>
  <rect x="8" y="8" width="496" height="496" rx="88" fill="none" stroke="#00E676" stroke-width="2" stroke-opacity="0.3"/>
  <!-- Circuit grid -->
  <line x1="128" y1="0" x2="128" y2="512" stroke="#00E676" stroke-opacity="0.05" stroke-width="1"/>
  <line x1="256" y1="0" x2="256" y2="512" stroke="#00E676" stroke-opacity="0.05" stroke-width="1"/>
  <line x1="384" y1="0" x2="384" y2="512" stroke="#00E676" stroke-opacity="0.05" stroke-width="1"/>
  <line x1="0" y1="128" x2="512" y2="128" stroke="#00E676" stroke-opacity="0.05" stroke-width="1"/>
  <line x1="0" y1="256" x2="512" y2="256" stroke="#00E676" stroke-opacity="0.05" stroke-width="1"/>
  <line x1="0" y1="384" x2="512" y2="384" stroke="#00E676" stroke-opacity="0.05" stroke-width="1"/>
  <!-- Circuit nodes -->
  <circle cx="128" cy="128" r="4" fill="#00E676" opacity="0.15"/>
  <circle cx="384" cy="128" r="4" fill="#00E676" opacity="0.15"/>
  <circle cx="128" cy="384" r="4" fill="#00E676" opacity="0.15"/>
  <circle cx="384" cy="384" r="4" fill="#00E676" opacity="0.15"/>
  <!-- Main icon: equipment/chip -->
  <rect x="176" y="176" width="160" height="160" rx="20" fill="none" stroke="#00E676" stroke-width="6"/>
  <!-- Chip pins -->
  <line x1="216" y1="176" x2="216" y2="148" stroke="#00E676" stroke-width="4" stroke-linecap="round"/>
  <line x1="256" y1="176" x2="256" y2="148" stroke="#00E676" stroke-width="4" stroke-linecap="round"/>
  <line x1="296" y1="176" x2="296" y2="148" stroke="#00E676" stroke-width="4" stroke-linecap="round"/>
  <line x1="216" y1="336" x2="216" y2="364" stroke="#00E676" stroke-width="4" stroke-linecap="round"/>
  <line x1="256" y1="336" x2="256" y2="364" stroke="#00E676" stroke-width="4" stroke-linecap="round"/>
  <line x1="296" y1="336" x2="296" y2="364" stroke="#00E676" stroke-width="4" stroke-linecap="round"/>
  <line x1="176" y1="216" x2="148" y2="216" stroke="#00E676" stroke-width="4" stroke-linecap="round"/>
  <line x1="176" y1="256" x2="148" y2="256" stroke="#00E676" stroke-width="4" stroke-linecap="round"/>
  <line x1="176" y1="296" x2="148" y2="296" stroke="#00E676" stroke-width="4" stroke-linecap="round"/>
  <line x1="336" y1="216" x2="364" y2="216" stroke="#00E676" stroke-width="4" stroke-linecap="round"/>
  <line x1="336" y1="256" x2="364" y2="256" stroke="#00E676" stroke-width="4" stroke-linecap="round"/>
  <line x1="336" y1="296" x2="364" y2="296" stroke="#00E676" stroke-width="4" stroke-linecap="round"/>
  <!-- Inner chip detail -->
  <rect x="216" y="216" width="80" height="80" rx="8" fill="#00E676" opacity="0.15"/>
  <text x="256" y="265" text-anchor="middle" font-family="monospace" font-size="28" font-weight="bold" fill="#00E676">IT</text>
</svg>
